<svg xmlns="http://www.w3.org/2000/svg" viewBox="0 0 760 1040" role="img" aria-labelledby="title desc">
  <title id="title">Portada de Atlas diminuto</title>
  <desc id="desc">Portada editorial ilustrada con mapa, montañas y una paleta suave.</desc>
  <rect width="760" height="1040" rx="34" fill="#fffaf2" />
  <rect x="42" y="42" width="676" height="956" rx="28" fill="#9bd5ff" stroke="#231f20" stroke-width="16" />
  <path d="M132 248c150-120 350-92 478 52 100 112 86 310-40 425-132 121-355 139-485-10C-18 595 10 345 132 248z" fill="#fffaf2" stroke="#231f20" stroke-width="14" />
  <path d="M170 395c125 38 260 18 410-70" fill="none" stroke="#d95c45" stroke-width="18" stroke-linecap="round" stroke-dasharray="32 28" />
  <path d="M236 694l84-158 94 158z" fill="#84cc9b" stroke="#231f20" stroke-width="12" />
  <path d="M388 712l116-205 122 205z" fill="#ffd36e" stroke="#231f20" stroke-width="12" />
  <circle cx="234" cy="340" r="42" fill="#ffad8f" stroke="#231f20" stroke-width="10" />
  <text x="380" y="865" text-anchor="middle" font-family="Georgia, serif" font-size="72" font-weight="900" fill="#231f20">Atlas</text>
  <text x="380" y="935" text-anchor="middle" font-family="Georgia, serif" font-size="54" font-weight="900" fill="#231f20">diminuto</text>
</svg>
